<?xml version="1.0" encoding="iso-8859-1"?>
<!-- Generator: Adobe Illustrator 19.0.0, SVG Export Plug-In . SVG Version: 6.00 Build 0)  -->
<svg version="1.1" id="Capa_1" xmlns="http://www.w3.org/2000/svg" xmlns:xlink="http://www.w3.org/1999/xlink" x="0px" y="0px"
	 viewBox="0 0 490.688 490.688" style="enable-background:new 0 0 490.688 490.688;" xml:space="preserve">
<path style="fill:#8BC34A;" d="M453.346,1.429c-3.3-1.905-7.366-1.905-10.667,0L37.346,236.096
	c-5.096,2.956-6.83,9.483-3.874,14.579c0.932,1.607,2.268,2.942,3.874,3.874l405.333,234.667c1.628,0.94,3.475,1.433,5.355,1.429
	c5.866-0.012,10.622-4.758,10.645-10.624V10.688C458.687,6.869,456.653,3.338,453.346,1.429z"/>
<path d="M448.013,490.688c-1.88,0.004-3.727-0.489-5.355-1.429L37.325,254.592c-5.096-2.956-6.83-9.483-3.874-14.579
	c0.932-1.607,2.268-2.942,3.874-3.874L442.658,1.472c5.095-2.957,11.623-1.224,14.58,3.871c0.943,1.624,1.44,3.468,1.441,5.345
	v469.333C458.679,485.912,453.904,490.688,448.013,490.688z M64.013,245.354l373.333,216.171V29.184L64.013,245.354z"/>
<g>
</g>
<g>
</g>
<g>
</g>
<g>
</g>
<g>
</g>
<g>
</g>
<g>
</g>
<g>
</g>
<g>
</g>
<g>
</g>
<g>
</g>
<g>
</g>
<g>
</g>
<g>
</g>
<g>
</g>
</svg>
