<?xml version="1.0" encoding="iso-8859-1"?>
<!-- Generator: Adobe Illustrator 19.0.0, SVG Export Plug-In . SVG Version: 6.00 Build 0)  -->
<svg version="1.1" id="Capa_1" xmlns="http://www.w3.org/2000/svg" xmlns:xlink="http://www.w3.org/1999/xlink" x="0px" y="0px"
	 viewBox="0 0 490.667 490.667" style="enable-background:new 0 0 490.667 490.667;" xml:space="preserve">
<path style="fill:#F44336;" d="M245.333,0C109.839,0,0,109.839,0,245.333s109.839,245.333,245.333,245.333
	s245.333-109.839,245.333-245.333C490.514,109.903,380.764,0.153,245.333,0z"/>
<path style="fill:#FAFAFA;" d="M254.485,111.851c-3.429-5.049-10.302-6.361-15.35-2.932c-1.154,0.784-2.149,1.779-2.932,2.932
	l-128,213.333c-3.028,5.053-1.386,11.604,3.667,14.632c1.651,0.989,3.539,1.513,5.464,1.517h256
	c5.891,0.001,10.668-4.773,10.669-10.664c0-1.932-0.524-3.828-1.517-5.485L254.485,111.851z"/>
<path d="M245.333,490.667C109.839,490.667,0,380.827,0,245.333S109.839,0,245.333,0s245.333,109.839,245.333,245.333
	C490.514,380.764,380.764,490.514,245.333,490.667z M245.333,21.333c-123.712,0-224,100.288-224,224s100.288,224,224,224
	s224-100.288,224-224C469.204,121.675,368.992,21.463,245.333,21.333z"/>
<path d="M373.333,341.333h-256c-5.891,0.001-10.668-4.773-10.669-10.664c0-1.932,0.524-3.828,1.517-5.485l128-213.333
	c3.429-5.049,10.302-6.361,15.35-2.932c1.154,0.784,2.149,1.779,2.932,2.932l128,213.333c3.028,5.053,1.386,11.604-3.667,14.632
	C377.146,340.806,375.258,341.33,373.333,341.333z M136.171,320h218.325L245.333,138.069L136.171,320z"/>
<g>
</g>
<g>
</g>
<g>
</g>
<g>
</g>
<g>
</g>
<g>
</g>
<g>
</g>
<g>
</g>
<g>
</g>
<g>
</g>
<g>
</g>
<g>
</g>
<g>
</g>
<g>
</g>
<g>
</g>
</svg>
